<?xml version="1.0" encoding="utf-8"?>
<!-- Generator: Adobe Illustrator 23.0.2, SVG Export Plug-In . SVG Version: 6.00 Build 0)  -->
<svg version="1.1" id="Layer_1" xmlns="http://www.w3.org/2000/svg" xmlns:xlink="http://www.w3.org/1999/xlink" x="0px" y="0px"
	 viewBox="0 0 255.1 141.7" style="enable-background:new 0 0 255.1 141.7;" xml:space="preserve">
<style type="text/css">
	.st0{fill:#FFFFFF;}
</style>
<g>
	<path class="st0" d="M154.5,84.6l-5.1-9.5l0,0l-0.4-0.6c-0.2-0.4-0.5-0.6-0.9-0.7s-0.7,0-1.1,0.2l-0.6,0.4l0,0l-9.1,6.1
		c-0.7,0.4-0.9,1.4-0.5,2.1l0.4,0.5c0.4,0.7,1.3,0.7,2,0.3l5.4-3.7c-1.3,10.4-9.7,18.3-19.9,19.3V58.8h8c1.1,0,2-0.9,2-2s-0.9-2-2-2
		h-8.1c0-0.1,0-0.1,0-0.2c3.6-0.8,6.2-4,6.2-7.8c0-4.5-3.6-8.1-8.1-8.1s-8.1,3.6-8.1,8.1c0,3.8,2.6,7,6.2,7.8c0,0.1,0,0.1-0.1,0.2
		h-8.1c-1.1,0-2,0.9-2,2s0.9,2,2,2h8v40.1C110.4,98,102,90,100.7,79.6l5.4,3.7c0.7,0.4,1.6,0.4,2-0.3l0.4-0.5
		c0.4-0.7,0.2-1.6-0.5-2.1l-9-6l0,0L98.3,74c-0.3-0.2-0.7-0.3-1.1-0.2c-0.4,0.1-0.7,0.3-0.9,0.7L96,75.1l0,0l-5.1,9.5
		c-0.4,0.7-0.2,1.6,0.5,2.1l0.6,0.2c0.7,0.4,1.5,0,1.9-0.7l3-5.6c1.8,12.8,12.8,22.4,25.8,22.4s24-9.6,25.8-22.4l3,5.6
		c0.4,0.7,1.2,1.1,1.9,0.7l0.6-0.2C154.6,86.2,154.9,85.3,154.5,84.6z M118.6,46.8c0-2.2,1.8-4.1,4.1-4.1c2.2,0,4.1,1.8,4.1,4.1
		c0,2.2-1.8,4.1-4.1,4.1C120.4,50.9,118.6,49,118.6,46.8z"/>
</g>
</svg>
