<?xml version="1.0" encoding="utf-8"?>
<!-- Generator: Adobe Illustrator 23.0.2, SVG Export Plug-In . SVG Version: 6.00 Build 0)  -->
<svg version="1.1" id="Layer_1" xmlns="http://www.w3.org/2000/svg" xmlns:xlink="http://www.w3.org/1999/xlink" x="0px" y="0px"
	 viewBox="0 0 255.1 141.7" style="enable-background:new 0 0 255.1 141.7;" xml:space="preserve">
<path d="M150.4,58.8l-8.7-16.7c-0.5-1-1.8-1.8-2.9-1.8h-20.1c0,0,0,0-0.1,0c0,0,0,0-0.1,0H98.7c-1.1,0-2.4,0.8-2.9,1.8L87,58.5
	c-0.5,1-0.4,2.5,0.2,3.4l30,41.8c0.3,0.4,0.7,0.7,1.2,0.7c0.4,0,0.8-0.2,1.2-0.7l30.5-41.5C150.7,61.3,150.9,59.8,150.4,58.8z
	 M145.6,58.3h-10.7l4.3-12.3L145.6,58.3z M122.6,44.3h12.9l-4,11.4L122.6,44.3z M128.4,58.3h-18.6l8.8-12.6L128.4,58.3z M106.3,56.4
	l-4-12.1h12.4L106.3,56.4z M129.2,62.3l-10.8,30.8l-10.2-30.8H129.2z M114,92.3l-21.5-30H104L114,92.3z M133.5,62.3H145l-22.1,30
	L133.5,62.3z M98.5,45.5l4.3,12.8H91.6L98.5,45.5z"/>
</svg>
