<?xml version="1.0" encoding="utf-8"?>
<!-- Generator: Adobe Illustrator 23.0.2, SVG Export Plug-In . SVG Version: 6.00 Build 0)  -->
<svg version="1.1" xmlns="http://www.w3.org/2000/svg" xmlns:xlink="http://www.w3.org/1999/xlink" x="0px" y="0px"
	 viewBox="0 0 255.1 141.7" style="enable-background:new 0 0 255.1 141.7;" xml:space="preserve">
<style type="text/css">
	.st0{fill:#FFFFFF;}
</style>
<g id="Layer_1">
	<path class="st0" d="M159.7,80.4c-0.1-0.9-3.4-20-3.9-23c0-0.3-0.1-0.6-0.1-0.9c-0.4-3.1-1.1-8.8-10.6-8.8c-1.1,0-2,0.9-2,2
		s0.9,2,2,2c5.8,0,6.1,2.3,6.5,5.3c0,0.4,0.1,0.7,0.2,1.1c0.2,1.4,1.3,7,2.3,12.6c-2.4-1.8-5.4-2.9-8.6-2.9c-5.2,0-9.8,2.7-12.4,6.8
		c-1.2-0.5-3.3-1-6.1-1c-2.7,0-4.8,0.6-6,1.1c-2.5-4.1-7-6.9-12.3-6.9c-3.4,0-6.6,1.2-9,3.1c0.9-5.6,2.1-11.4,2.3-12.8
		c0.1-0.3,0.1-0.7,0.2-1.1c0.4-3,0.7-5.3,6.5-5.3c1.1,0,2-0.9,2-2s-0.9-2-2-2c-9.4,0-10.2,5.7-10.6,8.8c0,0.3-0.1,0.6-0.1,0.9
		c-0.5,3.1-3.6,22-3.7,22.9c0,0.2,0,0.4,0,0.6c0,0.3,0,0.6,0,0.9c0,7.7,6.6,14,14.5,14c7.9,0,14.2-6.3,14.2-14
		c0-1.2-0.2-2.3-0.4-3.4c0.8-0.3,2.3-0.8,4.5-0.8c2.1,0,3.6,0.4,4.5,0.7c-0.3,1.1-0.5,2.2-0.5,3.4c0,7.7,6.6,14,14.5,14
		s14.2-6.3,14.2-14c0-0.2,0-0.4,0-0.6C159.7,80.9,159.8,80.6,159.7,80.4z M108.7,91.7c-5.6,0-10.4-4.6-10.4-10c0-5.4,4.7-10,10.4-10
		c5.6,0,10.2,4.5,10.2,10C118.9,87.2,114.3,91.7,108.7,91.7z M145.4,91.7c-5.6,0-10.4-4.6-10.4-10c0-5.4,4.7-10,10.4-10
		c4.8,0,8.9,3.3,9.9,7.8c0,0.4,0.1,0.8,0.1,1.1c0,0.2,0.1,0.3,0.1,0.5c0,0.2,0,0.4,0,0.5C155.6,87.2,151.1,91.7,145.4,91.7z"/>
</g>
<g id="Layer_2">
</g>
</svg>
