<?xml version="1.0" encoding="utf-8"?>
<!-- Generator: Adobe Illustrator 23.0.2, SVG Export Plug-In . SVG Version: 6.00 Build 0)  -->
<svg version="1.1" id="Layer_1" xmlns="http://www.w3.org/2000/svg" xmlns:xlink="http://www.w3.org/1999/xlink" x="0px" y="0px"
	 viewBox="0 0 255.1 141.7" style="enable-background:new 0 0 255.1 141.7;" xml:space="preserve">
<style type="text/css">
	.st0{fill:#FFFFFF;}
</style>
<path class="st0" d="M155,45.7H99c-2.2,0-4,1.8-4,4v34c0,2.2,1.8,4,4,4h26v6h-10c-1.1,0-2,0.9-2,2c0,1.1,0.9,2,2,2h24
	c1.1,0,2-0.9,2-2c0-1.1-0.9-2-2-2h-10v-6h26c2.2,0,4-1.8,4-4v-34C159,47.5,157.2,45.7,155,45.7z M155,83.7H99v-34h56V83.7z"/>
</svg>
